<svg xmlns="http://www.w3.org/2000/svg" xmlns:xlink="http://www.w3.org/1999/xlink" width="500" zoomAndPan="magnify" viewBox="0 0 375 374.999991" height="500" preserveAspectRatio="xMidYMid meet" version="1.0"><defs><filter x="0%" y="0%" width="100%" height="100%" id="8a8c4d06bd"><feColorMatrix values="0 0 0 0 1 0 0 0 0 1 0 0 0 0 1 0 0 0 1 0" color-interpolation-filters="sRGB"/></filter><clipPath id="9fdc6477f2"><path d="M 90 28 L 274 28 L 274 170 L 90 170 Z M 90 28 " clip-rule="nonzero"/></clipPath><clipPath id="e84b0626e0"><path d="M 78.875 126.898438 L 250.71875 16.054688 L 285.972656 70.707031 L 114.128906 181.554688 Z M 78.875 126.898438 " clip-rule="nonzero"/></clipPath><clipPath id="aefe7a4fc6"><path d="M 104.714844 110.230469 L 224.386719 33.035156 C 231.242188 28.617188 239.570312 27.097656 247.542969 28.820312 C 255.515625 30.539062 262.476562 35.355469 266.898438 42.210938 L 268.550781 44.773438 C 272.972656 51.628906 274.488281 59.957031 272.769531 67.929688 C 271.050781 75.898438 266.234375 82.863281 259.378906 87.28125 L 139.707031 164.476562 C 132.851562 168.898438 124.523438 170.414062 116.550781 168.695312 C 108.582031 166.972656 101.617188 162.15625 97.199219 155.304688 L 95.542969 152.738281 C 91.121094 145.886719 89.605469 137.558594 91.324219 129.585938 C 93.046875 121.613281 97.863281 114.652344 104.714844 110.230469 " clip-rule="nonzero"/></clipPath><mask id="663cabf4cd"><g filter="url(#8a8c4d06bd)"><rect x="-37.5" width="450" fill="#000000" y="-37.499999" height="449.999989" fill-opacity="0.8196"/></g></mask><clipPath id="c6ba99d82f"><path d="M 12 12 L 196 12 L 196 156 L 12 156 Z M 12 12 " clip-rule="nonzero"/></clipPath><clipPath id="82f41f5766"><path d="M 36.660156 0.84375 L 207.375 113.417969 L 171.570312 167.714844 L 0.855469 55.140625 Z M 36.660156 0.84375 " clip-rule="nonzero"/></clipPath><clipPath id="3b3e5da1e3"><path d="M 62.328125 17.773438 L 181.21875 96.171875 C 188.027344 100.660156 192.773438 107.671875 194.410156 115.660156 C 196.050781 123.648438 194.449219 131.960938 189.960938 138.769531 L 188.28125 141.316406 C 183.789062 148.125 176.78125 152.871094 168.792969 154.511719 C 160.800781 156.152344 152.488281 154.550781 145.679688 150.058594 L 26.792969 71.664062 C 19.984375 67.171875 15.238281 60.164062 13.597656 52.171875 C 11.960938 44.183594 13.5625 35.871094 18.050781 29.0625 L 19.730469 26.515625 C 24.21875 19.707031 31.230469 14.960938 39.21875 13.320312 C 47.207031 11.683594 55.519531 13.28125 62.328125 17.773438 " clip-rule="nonzero"/></clipPath><clipPath id="27680c834d"><rect x="0" width="207" y="0" height="168"/></clipPath><mask id="d806629e62"><g filter="url(#8a8c4d06bd)"><rect x="-37.5" width="450" fill="#000000" y="-37.499999" height="449.999989" fill-opacity="0.8784"/></g></mask><clipPath id="bff4532148"><path d="M 11 12 L 195 12 L 195 155 L 11 155 Z M 11 12 " clip-rule="nonzero"/></clipPath><clipPath id="4cf6c65176"><path d="M 0.125 111.648438 L 171.96875 0.800781 L 207.222656 55.457031 L 35.378906 166.304688 Z M 0.125 111.648438 " clip-rule="nonzero"/></clipPath><clipPath id="14de0458b4"><path d="M 25.964844 94.980469 L 145.636719 17.785156 C 152.492188 13.367188 160.820312 11.847656 168.792969 13.570312 C 176.765625 15.289062 183.726562 20.105469 188.148438 26.957031 L 189.800781 29.523438 C 194.222656 36.375 195.738281 44.707031 194.019531 52.675781 C 192.300781 60.648438 187.484375 67.609375 180.628906 72.03125 L 60.957031 149.226562 C 54.101562 153.648438 45.773438 155.164062 37.800781 153.445312 C 29.832031 151.722656 22.867188 146.90625 18.449219 140.054688 L 16.792969 137.488281 C 12.371094 130.636719 10.855469 122.308594 12.574219 114.335938 C 14.296875 106.363281 19.113281 99.402344 25.964844 94.980469 " clip-rule="nonzero"/></clipPath><clipPath id="8e64a71d0b"><rect x="0" width="207" y="0" height="167"/></clipPath></defs><g clip-path="url(#9fdc6477f2)"><g clip-path="url(#e84b0626e0)"><g clip-path="url(#aefe7a4fc6)"><path fill="#40b861" d="M 78.875 126.898438 L 250.226562 16.371094 L 285.164062 70.535156 L 113.8125 181.0625 Z M 78.875 126.898438 " fill-opacity="1" fill-rule="nonzero"/></g></g></g><g mask="url(#663cabf4cd)"><g transform="matrix(1, 0, 0, 1, 77, 91)"><g clip-path="url(#27680c834d)"><g clip-path="url(#c6ba99d82f)"><g clip-path="url(#82f41f5766)"><g clip-path="url(#3b3e5da1e3)"><path fill="#7ed957" d="M 36.660156 0.84375 L 206.886719 113.097656 L 171.402344 166.902344 L 1.175781 54.652344 Z M 36.660156 0.84375 " fill-opacity="1" fill-rule="nonzero"/></g></g></g></g></g></g><g mask="url(#d806629e62)"><g transform="matrix(1, 0, 0, 1, 78, 168)"><g clip-path="url(#8e64a71d0b)"><g clip-path="url(#bff4532148)"><g clip-path="url(#4cf6c65176)"><g clip-path="url(#14de0458b4)"><path fill="#40b861" d="M 0.125 111.648438 L 171.476562 1.121094 L 206.414062 55.28125 L 35.0625 165.8125 Z M 0.125 111.648438 " fill-opacity="1" fill-rule="nonzero"/></g></g></g></g></g></g></svg>